<?xml version="1.0" encoding="utf-8"?>
<!-- Generator: Adobe Illustrator 24.1.0, SVG Export Plug-In . SVG Version: 6.00 Build 0)  -->
<svg version="1.1" id="Capa_1" xmlns="http://www.w3.org/2000/svg" xmlns:xlink="http://www.w3.org/1999/xlink" x="0px" y="0px"
	 viewBox="0 0 507.6 62.4" style="enable-background:new 0 0 507.6 62.4;" xml:space="preserve">
<style type="text/css">
	.st0{fill:#FFFFFF;}
</style>
<path class="st0" d="M58.1,40.9c-0.4,0.6-0.8,1.3-1.2,1.9l3.7,5.3L56,52.8l-5.1-3.7c-0.6,0.5-1.3,0.9-1.9,1.3l1,6.1l-5.8,2.6
	l-3.4-5.3c-0.8,0.2-1.7,0.4-2.5,0.5v6.2h-8.1v-6.2c-0.9-0.1-1.7-0.3-2.5-0.5l-3.4,5.3l-5.8-2.7l1-6.2c-0.7-0.4-1.3-0.9-1.9-1.3
	l-5.1,3.7L7.7,48l3.6-5.3c-0.4-0.6-0.8-1.2-1.2-1.9l-5.7,1.3l-2.9-6.4L7,32.9c-0.2-0.7-0.3-1.4-0.4-2.1L0,29.3v-2.8l0,0v-2.7
	l6.6-1.5c0.1-0.7,0.2-1.4,0.4-2.1l-5.5-2.9l2.9-6.4l5.8,1.3c0.4-0.6,0.8-1.3,1.2-1.9L7.8,5.1l4.6-4.7l3.2,2.3v13.7
	C13.8,19.4,13,23,13,26.5l0,0C12.6,38.2,21.8,48,33.5,48.3C44,48.7,53.2,41.2,55,30.8h6.7c-0.1,0.7-0.2,1.4-0.4,2.1l5.5,2.9
	l-2.9,6.4L58.1,40.9z"/>
<path class="st0" d="M18,28.2V0.3h6.7v27.9H18z"/>
<path class="st0" d="M37,19h-1.7v9.2h-6.6V0.3h8.6c6.5,0,10.5,3,10.5,9.1C47.8,15.7,43.5,19,37,19z M36.9,5.5h-1.7v8.2h1.5
	c3,0,4.6-1.3,4.6-4.2C41.3,6.9,39.8,5.5,36.9,5.5z"/>
<path class="st0" d="M58.2,28.6c-3.2,0-6.5-0.7-9.4-2.1l1-5.9c2.6,1.5,5.5,2.4,8.5,2.6c1.9,0,3.2-0.9,3.2-2.5s-0.8-2.3-4.6-3.8
	c-5.4-2.1-7.8-4-7.8-8.6c0-5.4,4-8.3,9.2-8.3c2.8-0.1,5.6,0.6,8.1,1.9l-1,5.8c-2.1-1.4-4.5-2.1-7-2.3c-2,0-3,0.9-3,2.2
	s0.7,2.1,4.1,3.4c5.8,2.2,8.2,4.3,8.2,8.8C67.8,25.9,63.5,28.6,58.2,28.6z"/>
<path class="st0" d="M82.8,28.2V3.7h5.6v24.5H82.8z"/>
<path class="st0" d="M103.3,28.2l-5.7-14.9h-0.1l0.1,14.9h-5V3.7h6.1l5.7,15.1h0.1l-0.1-15.1h4.8v24.5H103.3z"/>
<path class="st0" d="M121.3,8.4v19.8h-5.4V8.4h-4.5V3.7h14.4v4.7H121.3z"/>
<path class="st0" d="M128,28.2V3.7h11.9v4.9h-6.6v4.8h6V18h-6v5.2h7v5H128z"/>
<path class="st0" d="M153.7,28.2l-3.3-9.8h-1.6v9.8h-5.3V3.7h7.9c2-0.1,4,0.5,5.5,1.9c1.4,1.5,2.1,3.5,2,5.5c0,0.8-0.1,1.6-0.3,2.4
	c-0.2,0.6-0.4,1.3-0.8,1.8c-0.3,0.5-0.7,0.9-1.1,1.2c-0.4,0.3-0.8,0.5-1.2,0.7l4.2,11L153.7,28.2z M153.4,11.4c0-0.5-0.1-1-0.3-1.5
	c-0.2-0.4-0.4-0.7-0.7-0.9c-0.3-0.2-0.6-0.4-0.9-0.5c-0.3-0.1-0.7-0.1-1-0.1h-1.7v6.2h1.6c0.8,0,1.5-0.3,2.1-0.8
	C153.1,13.2,153.5,12.3,153.4,11.4L153.4,11.4z"/>
<path class="st0" d="M172.8,28.2l-5.7-14.9H167l0.2,14.9h-5V3.7h6.1l5.6,15.1h0.1L174,3.7h4.8v24.5H172.8z"/>
<path class="st0" d="M194,28.2l-1-4.5h-5.5l-1,4.5h-5.5l5.9-24.5h7l5.9,24.5H194z M190.3,9h-0.1l-2.1,10.4h4.2L190.3,9z"/>
<path class="st0" d="M209,8.4v19.8h-5.4V8.4h-4.5V3.7h14.4v4.7H209z"/>
<path class="st0" d="M215.7,28.2V3.7h5.5v24.5H215.7z"/>
<path class="st0" d="M243.5,15.9c0,1.8-0.2,3.6-0.7,5.3c-0.4,1.5-1,2.9-1.9,4.1c-0.8,1.1-1.8,2-3,2.6c-2.5,1.3-5.4,1.3-7.9,0
	c-1.2-0.6-2.2-1.5-3-2.6c-0.9-1.2-1.5-2.6-1.9-4.1c-0.5-1.7-0.7-3.5-0.7-5.3c0-1.8,0.2-3.6,0.6-5.3c0.4-1.5,1-2.8,1.9-4.1
	c0.8-1.1,1.8-2,3-2.6c2.5-1.2,5.4-1.2,7.9,0c1.2,0.6,2.2,1.5,3,2.6c0.9,1.2,1.5,2.6,1.9,4.1C243.2,12.4,243.5,14.1,243.5,15.9z
	 M237.8,15.9c0-1-0.1-2-0.2-3c-0.1-0.8-0.4-1.6-0.7-2.4c-0.3-0.6-0.7-1.1-1.2-1.6c-0.5-0.4-1-0.6-1.6-0.6c-0.6,0-1.2,0.2-1.6,0.6
	c-0.5,0.4-0.9,1-1.2,1.6c-0.3,0.8-0.6,1.6-0.7,2.4c-0.2,1-0.2,2-0.2,3c0,1,0.1,2,0.2,3c0.1,0.8,0.4,1.6,0.7,2.4
	c0.3,0.6,0.7,1.2,1.2,1.6c0.5,0.4,1,0.6,1.6,0.6c0.6,0,1.2-0.2,1.6-0.6c0.5-0.4,0.9-1,1.2-1.6c0.3-0.8,0.6-1.6,0.7-2.4
	C237.7,17.9,237.8,16.9,237.8,15.9L237.8,15.9z"/>
<path class="st0" d="M257.4,28.2l-5.7-14.9h-0.1l0.1,14.9h-5V3.7h6.1l5.6,15.1h0.1l-0.1-15.1h4.8v24.5H257.4z"/>
<path class="st0" d="M278.6,28.2l-1-4.5h-5.5l-1,4.5h-5.5l6-24.5h7l5.8,24.5H278.6z M274.9,9h-0.1l-2.1,10.4h4.2L274.9,9z"/>
<path class="st0" d="M286.5,28.2V3.7h5.6v19.4h6.5v5.1H286.5z"/>
<path class="st0" d="M322.4,11.4c0,1.2-0.2,2.4-0.6,3.5c-0.7,1.8-2.2,3.2-4,3.9c-0.9,0.3-1.8,0.5-2.7,0.5h-2.4v8.9h-5.4V3.7h7.6
	c0.9,0,1.8,0.1,2.6,0.4c0.9,0.2,1.7,0.7,2.4,1.3c0.8,0.6,1.4,1.5,1.8,2.4C322.2,8.9,322.4,10.1,322.4,11.4z M317.2,11.5
	c0.1-0.9-0.2-1.7-0.8-2.4c-0.5-0.5-1.2-0.7-1.9-0.7h-1.8v6.4h1.8c0.7,0,1.4-0.3,1.9-0.9C317,13.3,317.3,12.4,317.2,11.5L317.2,11.5z
	"/>
<path class="st0" d="M334.8,28.2l-1-4.5h-5.6l-1,4.5h-5.5l6-24.5h7l5.9,24.5H334.8z M331.1,9h-0.1l-2.1,10.4h4.2L331.1,9z"/>
<path class="st0" d="M352.9,28.2l-3.3-9.8H348v9.8h-5.3V3.7h7.8c2-0.1,4,0.5,5.5,1.9c1.4,1.5,2.1,3.5,2,5.5c0,0.8-0.1,1.6-0.3,2.4
	c-0.2,0.6-0.4,1.3-0.8,1.8c-0.3,0.5-0.7,0.9-1.1,1.2c-0.4,0.3-0.8,0.5-1.2,0.7l4.2,11L352.9,28.2z M352.6,11.4c0-0.5-0.1-1-0.2-1.5
	c-0.2-0.4-0.4-0.7-0.7-0.9c-0.3-0.2-0.6-0.4-0.9-0.5c-0.3-0.1-0.7-0.1-1-0.1H348v6.2h1.6c0.8,0,1.5-0.3,2.1-0.8
	C352.3,13.2,352.7,12.3,352.6,11.4L352.6,11.4z"/>
<path class="st0" d="M369,8.4v19.8h-5.4V8.4H359V3.7h14.5v4.7H369z"/>
<path class="st0" d="M385.8,9.6c-0.4-0.5-0.9-0.9-1.5-1.1c-0.5-0.3-1.1-0.4-1.7-0.4c-0.6,0-1.2,0.2-1.7,0.6c-0.5,0.5-0.8,1.2-0.8,2
	c0,0.7,0.3,1.3,0.8,1.8c0.7,0.6,1.5,1,2.3,1.4c0.6,0.3,1.1,0.6,1.8,1c0.6,0.4,1.2,0.9,1.7,1.4c0.5,0.6,1,1.3,1.3,2
	c0.4,0.9,0.5,1.8,0.5,2.8c0,1.2-0.2,2.4-0.6,3.5c-0.4,0.9-1,1.8-1.7,2.5c-0.7,0.7-1.5,1.2-2.5,1.5c-0.9,0.3-1.9,0.5-2.9,0.5
	c-1.4,0-2.7-0.3-4-0.8c-1.1-0.5-2.1-1.1-2.9-1.9l2.8-4.2c0.5,0.6,1.2,1,1.8,1.3c0.7,0.3,1.4,0.5,2.1,0.5c0.6,0,1.2-0.2,1.7-0.7
	c1-1.1,0.9-2.7-0.1-3.8c-0.7-0.6-1.6-1.1-2.4-1.5c-0.7-0.3-1.3-0.7-1.9-1.1c-0.6-0.4-1.2-0.9-1.7-1.4c-0.4-0.6-0.8-1.2-1-1.9
	c-0.3-0.9-0.4-1.7-0.4-2.6c0-1.2,0.2-2.4,0.7-3.5c0.4-0.9,1-1.7,1.7-2.4c0.7-0.6,1.5-1.1,2.4-1.4c0.9-0.3,1.8-0.4,2.7-0.4
	c1.2,0,2.5,0.2,3.6,0.6c1,0.4,1.9,1,2.7,1.8L385.8,9.6z"/>
<path class="st0" d="M408.6,9.6c-0.4-0.5-0.9-0.9-1.4-1.1c-0.5-0.3-1.1-0.4-1.7-0.4c-0.6,0-1.2,0.2-1.7,0.6c-0.5,0.5-0.8,1.2-0.8,2
	c0,0.7,0.2,1.3,0.8,1.8c0.7,0.6,1.5,1,2.3,1.4c0.5,0.3,1.1,0.6,1.8,1c0.6,0.4,1.2,0.9,1.7,1.4c0.5,0.6,1,1.3,1.3,2
	c0.4,0.9,0.5,1.8,0.5,2.8c0,1.2-0.2,2.4-0.6,3.5c-0.4,0.9-1,1.8-1.7,2.5c-0.7,0.7-1.5,1.2-2.5,1.5c-0.9,0.3-1.9,0.5-2.9,0.5
	c-1.4,0-2.7-0.3-4-0.8c-1.1-0.5-2.1-1.1-2.9-1.9l2.8-4.2c0.5,0.5,1.1,1,1.8,1.3c0.7,0.3,1.4,0.5,2.1,0.5c0.6,0,1.2-0.2,1.7-0.7
	c1-1.1,0.9-2.7-0.1-3.8c-0.8-0.6-1.6-1.1-2.4-1.5c-0.7-0.3-1.3-0.7-1.9-1.1c-0.6-0.4-1.1-0.9-1.6-1.4c-0.5-0.6-0.8-1.2-1-1.9
	c-0.3-0.8-0.4-1.7-0.4-2.6c0-1.2,0.2-2.4,0.7-3.5c0.4-0.9,1-1.7,1.8-2.4c0.7-0.6,1.5-1.1,2.4-1.4c0.9-0.3,1.8-0.4,2.7-0.4
	c1.2,0,2.5,0.2,3.6,0.6c1,0.4,1.9,1,2.7,1.8L408.6,9.6z"/>
<path class="st0" d="M414.5,28.2V3.7h11.9v4.9h-6.5v4.8h6V18h-6v5.2h7v5H414.5z"/>
<path class="st0" d="M440.2,28.2l-3.3-9.8h-1.6v9.8H430V3.7h7.9c2-0.1,4,0.5,5.5,1.9c1.4,1.5,2.1,3.5,2,5.5c0,0.8-0.1,1.6-0.3,2.4
	c-0.2,0.6-0.5,1.3-0.8,1.8c-0.3,0.5-0.7,0.9-1.1,1.2c-0.4,0.3-0.8,0.5-1.2,0.7l4.2,11L440.2,28.2z M439.9,11.4c0-0.5-0.1-1-0.3-1.5
	c-0.1-0.4-0.4-0.7-0.7-0.9c-0.3-0.2-0.6-0.4-0.9-0.5c-0.3-0.1-0.7-0.1-1-0.1h-1.7v6.2h1.6c0.8,0,1.5-0.3,2.1-0.8
	C439.6,13.2,440,12.3,439.9,11.4L439.9,11.4z"/>
<path class="st0" d="M459.5,28.2h-7l-5.9-24.5h6.3l3.3,18h0.1l3.3-18h6L459.5,28.2z"/>
<path class="st0" d="M467.6,28.2V3.7h5.6v24.5H467.6z"/>
<path class="st0" d="M490.3,27.9c-1.3,0.7-2.7,1-4.2,1c-1.4,0-2.7-0.3-3.9-1c-1.2-0.7-2.2-1.6-3-2.7c-0.9-1.2-1.5-2.6-1.9-4.1
	c-0.5-1.7-0.7-3.4-0.7-5.2c0-1.8,0.2-3.6,0.7-5.3c0.4-1.5,1-2.9,1.9-4.1c0.8-1.1,1.8-2,3-2.6c1.2-0.6,2.5-0.9,3.9-0.9
	c1.4-0.1,2.8,0.3,4.1,0.9c1,0.5,1.9,1.3,2.6,2.2l-3,4c-0.4-0.5-0.9-1-1.4-1.3c-0.6-0.3-1.3-0.5-2-0.5c-0.7,0-1.4,0.2-1.9,0.6
	c-0.6,0.4-1,1-1.3,1.6c-0.4,0.8-0.7,1.6-0.9,2.4c-0.2,1-0.3,2-0.3,3c0,1,0.1,2,0.3,3c0.2,0.8,0.4,1.7,0.9,2.4
	c0.3,0.6,0.8,1.2,1.4,1.6c0.6,0.4,1.2,0.6,1.9,0.6c0.7,0,1.4-0.2,1.9-0.6c0.5-0.3,1-0.8,1.3-1.3l3.1,3.8
	C492.2,26.6,491.3,27.4,490.3,27.9z"/>
<path class="st0" d="M495.3,28.2V3.7h11.9v4.9h-6.5v4.8h6V18h-6v5.2h7v5H495.3z"/>
<path class="st0" d="M90,56.5l-1-4.1h-5l-1,4.1h-2.2l4.4-17.3H88l4.3,17.3L90,56.5z M86.6,41.2L86.6,41.2l-2.3,9.5h4.4L86.6,41.2z"
	/>
<path class="st0" d="M98.6,44.3v7.8c0,0.3,0,0.7,0,1c0,0.3,0.1,0.7,0.2,1c0.1,0.3,0.3,0.5,0.5,0.7c0.3,0.2,0.6,0.3,0.9,0.3
	c0.4,0,0.7-0.1,1-0.3c0.3-0.2,0.6-0.5,0.8-0.8c0.2-0.4,0.4-0.8,0.5-1.2c0.1-0.5,0.2-1,0.2-1.5v-7h2.1v9.2c0,0.5,0,1,0,1.6
	s0,1.1,0.1,1.5h-2c-0.1-0.4-0.1-0.8-0.1-1.2s0-0.7,0-0.9l0,0c-0.2,0.7-0.6,1.3-1.2,1.8c-0.5,0.5-1.3,0.8-2,0.7
	c-0.6,0-1.1-0.1-1.6-0.4c-0.4-0.3-0.8-0.6-1-1.1c-0.2-0.5-0.4-1-0.4-1.6c-0.1-0.6-0.1-1.2-0.1-1.8v-7.8H98.6z"/>
<path class="st0" d="M114.3,56.8c-0.3,0.1-0.6,0.1-0.9,0.1c-0.8,0.1-1.5-0.3-2-0.9c-0.4-0.8-0.7-1.6-0.6-2.5v-7.5h-1.6v-1.7h1.5V41
	h2v3.3h2.2v1.7h-2.2V53c0,0.5,0.1,1.1,0.3,1.5c0.2,0.3,0.6,0.5,1,0.5c0.2,0,0.3,0,0.5,0l0.4-0.1v1.7
	C114.8,56.6,114.6,56.7,114.3,56.8z"/>
<path class="st0" d="M127.7,50.4c0,0.9-0.1,1.8-0.3,2.7c-0.2,0.7-0.5,1.4-0.9,2.1c-0.4,0.5-0.8,1-1.4,1.3c-0.6,0.3-1.2,0.5-1.9,0.5
	c-0.7,0-1.3-0.2-1.9-0.5c-0.6-0.3-1.1-0.8-1.4-1.3c-0.4-0.6-0.7-1.3-0.9-2.1c-0.2-0.9-0.3-1.8-0.3-2.7c0-0.9,0.1-1.8,0.3-2.7
	c0.2-0.7,0.5-1.4,0.9-2.1c0.4-0.5,0.8-1,1.4-1.3c1.2-0.6,2.6-0.6,3.8,0c0.6,0.3,1,0.8,1.4,1.3c0.4,0.6,0.7,1.3,0.9,2.1
	C127.6,48.6,127.7,49.5,127.7,50.4z M125.5,50.4c0-0.6,0-1.3-0.1-1.9c-0.1-0.5-0.2-1-0.4-1.5c-0.2-0.4-0.4-0.7-0.7-1
	c-0.3-0.2-0.6-0.4-1-0.4c-0.4,0-0.7,0.1-1,0.4c-0.3,0.3-0.6,0.6-0.7,1c-0.2,0.5-0.3,1-0.4,1.5c-0.1,0.6-0.1,1.2-0.1,1.9
	c0,0.6,0,1.2,0.1,1.8c0.1,0.5,0.2,1,0.4,1.5c0.2,0.4,0.4,0.7,0.7,1c0.6,0.5,1.5,0.5,2.1,0c0.3-0.3,0.6-0.6,0.7-1
	c0.2-0.5,0.3-1,0.4-1.5C125.5,51.7,125.5,51,125.5,50.4L125.5,50.4z"/>
<path class="st0" d="M134.9,44.2v1.9h0.1c0.2-0.6,0.5-1.2,0.9-1.7c0.5-0.5,1.2-0.7,1.9-0.7c0.6,0,1.2,0.2,1.7,0.5
	c0.5,0.4,0.9,0.8,1.2,1.4c0.4,0.7,0.6,1.4,0.8,2.1c0.2,0.9,0.3,1.7,0.3,2.6c0,0.9-0.1,1.8-0.2,2.6c-0.1,0.7-0.4,1.4-0.7,2.1
	c-0.3,0.5-0.7,1-1.2,1.3c-0.5,0.3-1.1,0.5-1.7,0.5c-0.7,0-1.3-0.2-1.8-0.6c-0.5-0.4-0.8-1-1-1.6l0,0v7.7h-2.1V44.2H134.9z
	 M134.9,50.3c0,0.6,0,1.3,0.1,1.9c0.1,0.5,0.2,1,0.4,1.5c0.2,0.4,0.4,0.7,0.8,1c0.6,0.5,1.5,0.5,2.1,0c0.3-0.3,0.6-0.6,0.7-1
	c0.2-0.5,0.3-1,0.4-1.5c0.1-0.6,0.1-1.2,0.1-1.9c0-0.6,0-1.2-0.1-1.8c-0.1-0.5-0.2-1-0.4-1.5c-0.2-0.4-0.4-0.7-0.7-1
	c-0.3-0.2-0.6-0.4-1-0.4c-0.4,0-0.7,0.1-1,0.4c-0.3,0.3-0.6,0.6-0.8,1c-0.2,0.5-0.4,1-0.4,1.5C135,49.1,134.9,49.8,134.9,50.3
	L134.9,50.3z"/>
<path class="st0" d="M152.2,56.5c-0.1-0.4-0.1-0.7-0.1-1.1c0-0.4-0.1-0.7-0.1-0.9l0,0c-0.1,0.7-0.5,1.3-1,1.7
	c-0.5,0.4-1.2,0.7-1.9,0.6c-0.3,0-0.7-0.1-1-0.2c-0.4-0.1-0.7-0.3-1-0.6c-0.3-0.3-0.5-0.7-0.7-1.1c-0.4-1.3-0.4-2.6,0.2-3.9
	c0.3-0.5,0.7-1,1.2-1.3c0.5-0.3,1-0.5,1.6-0.7c0.6-0.1,1.1-0.2,1.7-0.2h0.8v-0.5c0.1-0.7-0.1-1.5-0.6-2.1c-0.4-0.4-0.9-0.7-1.5-0.7
	c-0.4,0-0.9,0.1-1.3,0.3c-0.4,0.2-0.7,0.5-1,0.9l-1.1-1.3c0.4-0.6,1-1,1.6-1.3c0.6-0.3,1.3-0.4,1.9-0.5c0.6,0,1.2,0.1,1.8,0.3
	c0.5,0.2,0.9,0.6,1.2,1c0.3,0.5,0.5,1.1,0.6,1.6c0.1,0.7,0.2,1.5,0.2,2.2v5c0,0.4,0,0.9,0.1,1.4c0,0.4,0.1,0.8,0.1,1.2L152.2,56.5z
	 M151.9,50.5H151c-0.4,0-0.7,0-1.1,0.1c-0.3,0.1-0.7,0.2-0.9,0.4c-0.3,0.2-0.5,0.5-0.7,0.8c-0.2,0.4-0.3,0.8-0.2,1.2
	c-0.1,0.6,0.1,1.2,0.5,1.7c0.3,0.3,0.7,0.5,1.1,0.5c0.4,0,0.8-0.1,1.1-0.4c0.3-0.3,0.5-0.6,0.7-1c0.2-0.4,0.3-0.8,0.4-1.3
	c0.1-0.4,0.1-0.9,0.1-1.3L151.9,50.5z"/>
<path class="st0" d="M162.5,44.5c0.4-0.5,1-0.7,1.6-0.7h0.3l-0.1,2.2h-0.2h-0.2c-0.4,0-0.7,0.1-1,0.4c-0.3,0.3-0.6,0.6-0.8,1
	c-0.2,0.4-0.4,0.9-0.5,1.4c-0.1,0.5-0.2,1-0.2,1.6v6.2h-2.1v-9.2c0-0.5,0-1,0-1.6s0-1.1-0.1-1.5h2c0.1,0.4,0.1,0.8,0.1,1.3
	s0,0.9,0,1.3h0.1C161.6,46,161.9,45.2,162.5,44.5z"/>
<path class="st0" d="M172.2,56.8c-0.3,0.1-0.6,0.1-0.9,0.1c-0.8,0.1-1.5-0.3-2-0.9c-0.4-0.8-0.7-1.6-0.6-2.5v-7.5h-1.5v-1.7h1.5V41
	h2v3.3h2.2v1.7h-2.2V53c0,0.5,0.1,1.1,0.3,1.5c0.2,0.3,0.6,0.5,1,0.5c0.2,0,0.3,0,0.5,0l0.4-0.1l0.1,1.7
	C172.7,56.7,172.5,56.7,172.2,56.8z"/>
<path class="st0" d="M178.7,50.9c0,0.6,0,1.1,0.2,1.7c0.1,0.5,0.2,0.9,0.5,1.3c0.2,0.4,0.4,0.7,0.8,0.9c0.3,0.2,0.7,0.3,1.1,0.3
	c0.5,0,1-0.2,1.3-0.5c0.3-0.4,0.6-0.8,0.8-1.2l1.6,0.9c-0.3,0.7-0.8,1.4-1.4,1.9c-0.7,0.5-1.5,0.8-2.3,0.8c-1.3,0-2.6-0.6-3.3-1.8
	c-0.9-1.4-1.3-3.1-1.2-4.8c0-0.9,0.1-1.8,0.3-2.7c0.2-0.7,0.5-1.4,0.9-2.1c0.4-0.5,0.9-1,1.4-1.3c1.2-0.6,2.6-0.6,3.8,0
	c0.5,0.3,1,0.8,1.3,1.3c0.4,0.6,0.6,1.2,0.7,1.9c0.1,0.8,0.2,1.6,0.2,2.4v1L178.7,50.9z M183.2,49.2c0-0.9-0.1-1.8-0.5-2.6
	c-0.3-0.6-0.9-1-1.6-1c-0.4,0-0.8,0.1-1.1,0.4c-0.3,0.3-0.5,0.6-0.7,0.9c-0.2,0.4-0.3,0.8-0.4,1.2c-0.1,0.4-0.1,0.7-0.1,1.1
	L183.2,49.2z"/>
<path class="st0" d="M195.2,46.6c-0.2-0.3-0.5-0.6-0.8-0.8c-0.4-0.2-0.8-0.3-1.2-0.3c-0.4,0-0.9,0.2-1.2,0.5
	c-0.3,0.4-0.5,0.9-0.5,1.4c0,0.5,0.1,0.9,0.5,1.2c0.4,0.3,0.9,0.6,1.5,0.8c0.3,0.1,0.7,0.3,1,0.5c0.3,0.2,0.6,0.4,0.9,0.7
	c0.3,0.3,0.5,0.6,0.6,1c0.2,0.5,0.3,0.9,0.2,1.4c0,0.6-0.1,1.1-0.3,1.7c-0.3,0.9-1.1,1.7-2,2c-0.5,0.2-1,0.3-1.5,0.3
	c-0.7,0-1.4-0.1-2-0.4c-0.6-0.3-1.1-0.7-1.5-1.2l1.2-1.3c0.3,0.3,0.6,0.6,1,0.9c0.4,0.3,0.9,0.4,1.4,0.4c0.5,0,0.9-0.2,1.2-0.6
	c0.3-0.4,0.5-0.9,0.4-1.5c0-0.3,0-0.6-0.2-0.9c-0.1-0.2-0.3-0.4-0.5-0.6c-0.2-0.2-0.4-0.3-0.7-0.4l-0.9-0.4
	c-0.3-0.1-0.6-0.3-0.9-0.4c-0.3-0.2-0.6-0.4-0.8-0.7c-0.3-0.3-0.5-0.6-0.6-1c-0.2-0.5-0.2-0.9-0.2-1.4c0-0.5,0.1-1,0.3-1.5
	c0.2-0.4,0.4-0.8,0.8-1.1c0.3-0.3,0.7-0.6,1.2-0.7c0.5-0.2,0.9-0.3,1.4-0.3c0.7,0,1.3,0.1,1.9,0.4c0.5,0.2,1,0.6,1.3,1L195.2,46.6z"
	/>
<path class="st0" d="M212,58.8c-0.1,0.5-0.3,1-0.5,1.5c-0.2,0.4-0.4,0.8-0.7,1.2c-0.3,0.3-0.6,0.6-1,0.7c-0.4,0.2-0.9,0.3-1.3,0.3
	c-0.3,0-0.5,0-0.8-0.1c-0.2,0-0.4-0.1-0.6-0.1l0.3-1.9c0.3,0.1,0.7,0.2,1,0.2c0.4,0,0.8-0.1,1.1-0.4c0.3-0.4,0.5-0.8,0.6-1.2
	l0.5-1.9l-3.6-12.7h2.2l2.4,9.8l0,0l2.2-9.8h2.1L212,58.8z"/>
<path class="st0" d="M230.3,44.5c0.4-0.5,1-0.7,1.6-0.7h0.3l-0.1,2.2h-0.2h-0.2c-0.4,0-0.7,0.1-1,0.4c-0.3,0.3-0.6,0.6-0.8,1
	c-0.2,0.4-0.4,0.9-0.5,1.4c-0.1,0.5-0.2,1-0.2,1.6v6.2h-2.1v-9.2c0-0.5,0-1,0-1.6s0-1.1-0.1-1.5h2c0,0.4,0.1,0.8,0.1,1.3
	s0,0.9,0,1.3l0,0C229.4,46,229.7,45.2,230.3,44.5z"/>
<path class="st0" d="M237.7,50.9c0,0.6,0,1.1,0.2,1.7c0.1,0.5,0.2,0.9,0.5,1.3c0.2,0.4,0.4,0.7,0.8,0.9c0.3,0.2,0.7,0.3,1.1,0.3
	c0.5,0,1-0.2,1.3-0.5c0.3-0.4,0.6-0.8,0.8-1.2l1.6,0.9c-0.3,0.7-0.8,1.4-1.4,1.9c-0.7,0.5-1.5,0.8-2.3,0.8c-1.3,0-2.6-0.6-3.3-1.7
	c-0.9-1.4-1.3-3.1-1.2-4.8c0-0.9,0.1-1.8,0.3-2.7c0.2-0.7,0.5-1.5,0.9-2.1c0.4-0.5,0.9-1,1.4-1.3c1.2-0.6,2.6-0.6,3.7,0
	c0.5,0.3,1,0.8,1.3,1.3c0.3,0.6,0.6,1.2,0.7,1.9c0.2,0.8,0.2,1.6,0.2,2.4v1H237.7z M242.1,49.2c0-0.9-0.1-1.8-0.5-2.6
	c-0.3-0.6-0.9-1-1.6-1c-0.4,0-0.8,0.1-1.1,0.4c-0.3,0.3-0.5,0.6-0.7,0.9c-0.2,0.4-0.3,0.8-0.4,1.2c-0.1,0.4-0.1,0.7-0.1,1.1
	L242.1,49.2z"/>
<path class="st0" d="M251.3,44.2v1.9h0c0.2-0.6,0.5-1.2,0.9-1.7c0.5-0.5,1.2-0.7,1.9-0.7c0.6,0,1.2,0.2,1.7,0.5
	c0.5,0.4,0.9,0.8,1.2,1.4c0.4,0.7,0.6,1.4,0.8,2.1c0.2,0.9,0.3,1.7,0.2,2.6c0,0.9-0.1,1.8-0.2,2.6c-0.1,0.7-0.4,1.4-0.8,2.1
	c-0.3,0.5-0.7,1-1.2,1.3c-0.5,0.3-1.1,0.5-1.7,0.5c-0.7,0-1.3-0.2-1.8-0.6c-0.5-0.4-0.8-1-1-1.6h0v7.7h-2.1V44.2H251.3z M251.3,50.3
	c0,0.6,0,1.3,0.1,1.9c0.1,0.5,0.2,1,0.5,1.5c0.2,0.4,0.4,0.7,0.8,1c0.3,0.2,0.6,0.4,1,0.4c0.4,0,0.7-0.1,1-0.4
	c0.3-0.3,0.5-0.6,0.7-1c0.2-0.5,0.3-1,0.4-1.5c0.1-0.6,0.1-1.2,0.1-1.9c0-0.6,0-1.2-0.1-1.8c-0.1-0.5-0.2-1-0.4-1.5
	c-0.2-0.4-0.4-0.7-0.7-1c-0.3-0.2-0.6-0.4-1-0.4c-0.4,0-0.7,0.1-1,0.4c-0.3,0.3-0.6,0.6-0.7,1c-0.2,0.5-0.4,1-0.4,1.5
	C251.3,49.1,251.3,49.8,251.3,50.3L251.3,50.3z"/>
<path class="st0" d="M265.3,44.3v7.8c0,0.3,0,0.7,0,1c0,0.3,0.1,0.7,0.2,1c0.1,0.3,0.3,0.5,0.5,0.7c0.3,0.2,0.6,0.3,0.9,0.3
	c0.3,0,0.7-0.1,1-0.3c0.3-0.2,0.6-0.5,0.8-0.8c0.2-0.4,0.4-0.8,0.5-1.2c0.1-0.5,0.2-1,0.2-1.5v-7h2.1v9.2c0,0.5,0,1,0,1.6
	s0,1.1,0.1,1.5h-2c0-0.4-0.1-0.8-0.1-1.2s0-0.7,0-0.9h0c-0.2,0.7-0.6,1.3-1.1,1.8c-0.5,0.5-1.2,0.8-2,0.7c-0.6,0-1.1-0.1-1.6-0.4
	c-0.4-0.3-0.7-0.6-0.9-1.1c-0.2-0.5-0.4-1-0.5-1.6c-0.1-0.6-0.1-1.2-0.1-1.8v-7.8H265.3z"/>
<path class="st0" d="M278.8,50.9c0,0.6,0,1.1,0.2,1.7c0.1,0.5,0.2,0.9,0.5,1.3c0.2,0.4,0.5,0.7,0.8,0.9c0.3,0.2,0.7,0.3,1.1,0.3
	c0.5,0,1-0.2,1.3-0.5c0.3-0.4,0.6-0.8,0.8-1.2l1.6,0.9c-0.3,0.7-0.8,1.4-1.4,1.9c-0.7,0.5-1.5,0.8-2.3,0.8c-1.3,0-2.6-0.6-3.3-1.8
	c-0.9-1.4-1.3-3.1-1.2-4.8c0-0.9,0.1-1.8,0.3-2.7c0.2-0.7,0.5-1.4,0.9-2.1c0.4-0.5,0.9-1,1.4-1.3c1.2-0.6,2.6-0.6,3.8,0
	c0.5,0.3,1,0.8,1.3,1.3c0.4,0.6,0.6,1.2,0.7,1.9c0.2,0.8,0.2,1.6,0.2,2.4v1L278.8,50.9z M283.2,49.2c0-0.9-0.1-1.8-0.5-2.6
	c-0.3-0.6-0.9-1-1.6-1c-0.4,0-0.8,0.1-1.1,0.4c-0.3,0.3-0.5,0.6-0.7,0.9c-0.2,0.4-0.3,0.8-0.4,1.2c-0.1,0.4-0.1,0.7-0.1,1.1
	L283.2,49.2z"/>
<path class="st0" d="M295.3,46.6c-0.2-0.3-0.5-0.6-0.8-0.8c-0.4-0.2-0.8-0.3-1.2-0.3c-0.4,0-0.9,0.2-1.2,0.5
	c-0.3,0.4-0.5,0.9-0.5,1.4c0,0.5,0.1,0.9,0.5,1.2c0.4,0.3,0.9,0.6,1.5,0.8c0.3,0.1,0.7,0.3,1,0.5c0.3,0.2,0.6,0.4,0.9,0.7
	c0.3,0.3,0.5,0.6,0.6,1c0.2,0.5,0.3,0.9,0.2,1.4c0,0.6-0.1,1.1-0.3,1.7c-0.2,0.5-0.4,0.9-0.8,1.2c-0.3,0.3-0.7,0.6-1.2,0.8
	c-0.5,0.2-1,0.3-1.5,0.3c-0.7,0-1.4-0.1-2-0.4c-0.6-0.3-1.1-0.7-1.5-1.2l1.2-1.3c0.3,0.3,0.6,0.6,1,0.9c0.4,0.3,0.9,0.4,1.4,0.4
	c0.5,0,0.9-0.2,1.2-0.6c0.3-0.4,0.5-0.9,0.5-1.5c0-0.3-0.1-0.6-0.2-0.9c-0.1-0.2-0.3-0.4-0.5-0.6c-0.2-0.2-0.4-0.3-0.7-0.4l-0.9-0.4
	c-0.3-0.1-0.6-0.3-0.9-0.4c-0.3-0.2-0.6-0.4-0.8-0.7c-0.3-0.3-0.5-0.6-0.6-1c-0.2-0.5-0.2-0.9-0.2-1.4c0-1,0.4-1.9,1-2.6
	c0.3-0.3,0.7-0.6,1.2-0.7c0.5-0.2,0.9-0.3,1.4-0.3c0.7,0,1.3,0.2,1.9,0.5c0.5,0.2,1,0.6,1.3,1L295.3,46.6z"/>
<path class="st0" d="M305,56.8c-0.3,0.1-0.6,0.1-0.9,0.1c-0.8,0.1-1.5-0.3-2-0.9c-0.4-0.8-0.7-1.6-0.6-2.5v-7.5H300v-1.7h1.5V41h2
	v3.3h2.2v1.7h-2.2V53c0,0.5,0.1,1.1,0.3,1.5c0.2,0.3,0.6,0.5,1,0.5c0.2,0,0.3,0,0.5,0l0.4-0.1v1.7C305.5,56.6,305.3,56.7,305,56.8z"
	/>
<path class="st0" d="M318.4,50.4c0,0.9-0.1,1.8-0.3,2.7c-0.2,0.7-0.5,1.4-0.9,2.1c-0.4,0.5-0.8,1-1.4,1.3c-0.6,0.3-1.2,0.5-1.9,0.5
	c-0.7,0-1.3-0.2-1.9-0.5c-0.6-0.3-1.1-0.8-1.4-1.3c-0.4-0.6-0.7-1.3-0.9-2.1c-0.2-0.9-0.3-1.8-0.3-2.7c0-0.9,0.1-1.8,0.3-2.7
	c0.2-0.7,0.5-1.4,0.9-2.1c0.4-0.5,0.8-1,1.4-1.3c1.2-0.6,2.6-0.6,3.8,0c0.6,0.3,1,0.8,1.4,1.3c0.4,0.6,0.7,1.3,0.9,2.1
	C318.3,48.6,318.4,49.5,318.4,50.4z M316.2,50.4c0-0.6,0-1.3-0.1-1.9c-0.1-0.5-0.2-1-0.4-1.5c-0.2-0.4-0.4-0.7-0.7-1
	c-0.3-0.2-0.6-0.4-1-0.4c-0.4,0-0.7,0.1-1,0.4c-0.3,0.3-0.6,0.6-0.7,1c-0.2,0.5-0.3,1-0.4,1.5c-0.1,0.6-0.1,1.2-0.1,1.9
	c0,0.6,0,1.2,0.1,1.8c0.1,0.5,0.2,1,0.4,1.5c0.2,0.4,0.4,0.7,0.7,1c0.3,0.2,0.6,0.4,1,0.4c0.4,0,0.7-0.1,1-0.4
	c0.3-0.3,0.6-0.6,0.7-1c0.2-0.5,0.3-1,0.4-1.5C316.1,51.7,316.2,51,316.2,50.4L316.2,50.4z"/>
<path class="st0" d="M328.4,46.6c-0.2-0.3-0.5-0.6-0.8-0.8c-0.4-0.2-0.8-0.3-1.2-0.3c-0.4,0-0.9,0.2-1.2,0.5
	c-0.3,0.4-0.5,0.9-0.5,1.4c0,0.5,0.1,0.9,0.5,1.2c0.4,0.3,0.9,0.6,1.5,0.8c0.3,0.1,0.7,0.3,1,0.5c0.3,0.2,0.6,0.4,0.9,0.7
	c0.3,0.3,0.5,0.6,0.6,1c0.2,0.5,0.3,0.9,0.2,1.4c0,0.6-0.1,1.1-0.3,1.7c-0.2,0.5-0.4,0.9-0.8,1.2c-0.3,0.3-0.7,0.6-1.2,0.8
	c-0.5,0.2-1,0.3-1.5,0.3c-0.7,0-1.4-0.1-2-0.4c-0.6-0.3-1.1-0.7-1.5-1.2l1.2-1.3c0.3,0.3,0.6,0.6,1,0.9c0.4,0.3,0.9,0.4,1.4,0.4
	c0.5,0,0.9-0.2,1.2-0.6c0.3-0.4,0.5-0.9,0.4-1.4c0-0.3-0.1-0.6-0.2-0.9c-0.1-0.2-0.3-0.4-0.5-0.6c-0.2-0.2-0.4-0.4-0.7-0.5l-0.9-0.4
	c-0.3-0.1-0.6-0.3-0.9-0.4c-0.3-0.2-0.6-0.4-0.8-0.7c-0.3-0.3-0.5-0.6-0.6-1c-0.2-0.5-0.2-0.9-0.2-1.4c0-1,0.4-1.9,1-2.6
	c0.3-0.3,0.7-0.6,1.2-0.7c0.5-0.2,0.9-0.3,1.4-0.3c0.7,0,1.3,0.1,1.9,0.4c0.5,0.2,1,0.6,1.3,1L328.4,46.6z"/>
<path class="st0" d="M343.7,40.6c0,0.4-0.1,0.7-0.4,1c-0.2,0.3-0.6,0.4-0.9,0.4c-0.4,0-0.7-0.1-0.9-0.4c-0.3-0.3-0.4-0.6-0.4-1
	c0-0.4,0.1-0.7,0.4-1c0.2-0.3,0.6-0.4,0.9-0.4c0.4,0,0.7,0.1,0.9,0.4C343.6,39.9,343.7,40.2,343.7,40.6z M341.4,56.5V44.2h2.1v12.3
	H341.4z"/>
<path class="st0" d="M355.6,56.5v-7.8c0-0.4,0-0.7,0-1.1c0-0.3-0.1-0.7-0.2-1c-0.1-0.3-0.3-0.5-0.5-0.7c-0.3-0.2-0.6-0.3-0.9-0.3
	c-0.3,0-0.7,0.1-1,0.3c-0.3,0.2-0.6,0.5-0.8,0.8c-0.2,0.4-0.4,0.8-0.5,1.2c-0.1,0.5-0.2,1-0.2,1.5v7.1h-2.1v-9.2c0-0.5,0-1,0-1.6
	s0-1.1-0.1-1.5h2c0,0.4,0.1,0.8,0.1,1.2s0,0.7,0,0.9h0c0.2-0.7,0.6-1.3,1.1-1.8c0.5-0.5,1.2-0.7,1.9-0.7c0.6,0,1.2,0.1,1.7,0.4
	c0.4,0.3,0.7,0.7,1,1.1c0.2,0.5,0.4,1,0.5,1.6c0.1,0.6,0.1,1.2,0.1,1.8v7.8L355.6,56.5z"/>
<path class="st0" d="M367.1,56.8c-0.3,0.1-0.6,0.1-0.9,0.1c-0.8,0.1-1.5-0.3-2-0.9c-0.5-0.8-0.7-1.6-0.6-2.5v-7.5h-1.6v-1.7h1.5V41
	h2v3.3h2.2v1.7h-2.2V53c0,0.5,0.1,1.1,0.3,1.5c0.2,0.3,0.6,0.5,1,0.5c0.2,0,0.3,0,0.5,0l0.4-0.1l0,1.7
	C367.6,56.7,367.4,56.7,367.1,56.8z"/>
<path class="st0" d="M373.6,50.9c0,0.6,0,1.1,0.2,1.7c0.1,0.5,0.2,0.9,0.5,1.3c0.2,0.4,0.4,0.7,0.8,0.9c0.3,0.2,0.7,0.3,1.1,0.3
	c0.5,0,1-0.2,1.3-0.5c0.3-0.4,0.6-0.8,0.8-1.2l1.6,0.9c-0.3,0.7-0.8,1.4-1.4,1.9c-0.7,0.5-1.5,0.8-2.3,0.8c-1.3,0-2.6-0.6-3.3-1.8
	c-0.9-1.4-1.3-3.1-1.2-4.8c0-0.9,0.1-1.8,0.3-2.7c0.2-0.7,0.5-1.5,0.9-2.1c0.4-0.5,0.9-1,1.4-1.3c1.2-0.6,2.6-0.6,3.7,0
	c0.5,0.3,1,0.8,1.3,1.3c0.4,0.6,0.6,1.2,0.7,1.9c0.2,0.8,0.2,1.6,0.2,2.4v1L373.6,50.9z M378,49.2c0-0.9-0.1-1.8-0.5-2.6
	c-0.3-0.6-0.9-1-1.6-1c-0.4,0-0.8,0.1-1.1,0.4c-0.3,0.3-0.5,0.6-0.7,0.9c-0.2,0.4-0.3,0.8-0.4,1.2c-0.1,0.4-0.1,0.7-0.1,1.1
	L378,49.2z"/>
<path class="st0" d="M388.4,44.5c0.4-0.5,1-0.7,1.6-0.7h0.3l-0.1,2.2H390h-0.2c-0.4,0-0.7,0.1-1,0.4c-0.3,0.3-0.6,0.6-0.8,1
	c-0.2,0.4-0.4,0.9-0.5,1.4c-0.1,0.5-0.2,1-0.2,1.6v6.2h-2.1v-9.2c0-0.5,0-1,0-1.6s0-1.1-0.1-1.5h2c0,0.4,0.1,0.8,0.1,1.3
	s0,0.9,0,1.3h0C387.5,46,387.8,45.2,388.4,44.5z"/>
<path class="st0" d="M400.7,56.5v-7.8c0-0.4,0-0.7,0-1.1c0-0.3-0.1-0.7-0.2-1c-0.1-0.3-0.3-0.5-0.5-0.7c-0.3-0.2-0.6-0.3-0.9-0.3
	c-0.3,0-0.7,0.1-1,0.3c-0.3,0.2-0.6,0.5-0.8,0.8c-0.2,0.4-0.4,0.8-0.5,1.2c-0.1,0.5-0.2,1-0.2,1.5v7.1h-2.1v-9.2c0-0.5,0-1,0-1.6
	s0-1.1-0.1-1.5h2c0,0.4,0.1,0.8,0.1,1.2s0,0.7,0,0.9l0,0c0.2-0.7,0.6-1.3,1.1-1.8c0.5-0.5,1.2-0.7,1.9-0.7c0.6,0,1.1,0.1,1.6,0.4
	c0.4,0.3,0.8,0.6,1,1.1c0.2,0.5,0.4,1,0.5,1.6c0.1,0.6,0.1,1.2,0.1,1.8v7.8L400.7,56.5z"/>
<path class="st0" d="M413.9,56.5c-0.1-0.4-0.1-0.8-0.1-1.1c0-0.3,0-0.6,0-0.9h0c-0.1,0.7-0.5,1.3-1,1.7c-0.5,0.4-1.2,0.7-1.9,0.6
	c-0.3,0-0.7-0.1-1-0.2c-0.4-0.1-0.7-0.3-1-0.6c-0.3-0.3-0.5-0.7-0.7-1.1c-0.2-0.5-0.3-1.1-0.3-1.7c0-0.8,0.1-1.5,0.5-2.2
	c0.3-0.5,0.7-1,1.2-1.3c0.5-0.3,1-0.5,1.6-0.7c0.6-0.1,1.1-0.2,1.7-0.2h0.8v-0.5c0.1-0.7-0.1-1.5-0.5-2.1c-0.4-0.4-0.9-0.7-1.5-0.7
	c-0.4,0-0.9,0.1-1.3,0.3c-0.4,0.2-0.7,0.5-1,0.9l-1.1-1.3c0.4-0.6,1-1,1.6-1.3c0.6-0.3,1.3-0.4,1.9-0.5c0.6,0,1.2,0.1,1.8,0.3
	c0.5,0.2,0.9,0.6,1.2,1c0.3,0.5,0.5,1.1,0.6,1.6c0.1,0.7,0.2,1.5,0.2,2.2v5c0,0.4,0,0.9,0,1.4c0,0.4,0.1,0.8,0.1,1.2L413.9,56.5z
	 M413.6,50.5h-0.9c-0.4,0-0.7,0-1.1,0.1c-0.3,0.1-0.7,0.2-0.9,0.4c-0.3,0.2-0.5,0.5-0.7,0.8c-0.2,0.4-0.3,0.8-0.2,1.2
	c-0.1,0.6,0.1,1.2,0.5,1.7c0.3,0.3,0.7,0.5,1.1,0.5c0.4,0,0.8-0.1,1.1-0.4c0.3-0.3,0.5-0.6,0.7-1c0.2-0.4,0.3-0.8,0.4-1.3
	c0.1-0.4,0.1-0.9,0.1-1.3V50.5z"/>
<path class="st0" d="M424.8,57c-0.7,0-1.3-0.2-1.9-0.5c-0.6-0.3-1-0.8-1.4-1.3c-0.4-0.6-0.7-1.3-0.8-2.1c-0.4-1.8-0.4-3.6,0-5.3
	c0.2-0.7,0.4-1.4,0.9-2.1c0.4-0.6,0.8-1,1.4-1.3c0.6-0.3,1.3-0.5,1.9-0.5c0.6,0,1.1,0.1,1.6,0.3c0.4,0.2,0.8,0.4,1.1,0.7l-1.1,1.6
	c-0.2-0.2-0.4-0.4-0.7-0.6c-0.3-0.2-0.7-0.2-1-0.2c-0.4,0-0.7,0.1-1,0.3c-0.3,0.3-0.6,0.6-0.7,1c-0.2,0.5-0.4,1-0.4,1.5
	c-0.1,0.6-0.1,1.3-0.1,1.9c0,0.6,0,1.3,0.1,1.9c0.1,0.5,0.2,1,0.4,1.5c0.2,0.4,0.4,0.7,0.8,1c0.3,0.2,0.7,0.4,1.1,0.3
	c0.3,0,0.7-0.1,1-0.2c0.3-0.1,0.5-0.3,0.7-0.6l0.9,1.6C426.8,56.6,425.8,57,424.8,57z"/>
<path class="st0" d="M434.1,40.6c0,0.4-0.1,0.7-0.4,1c-0.5,0.5-1.3,0.5-1.8,0c0,0,0,0,0,0c-0.2-0.3-0.4-0.6-0.4-1
	c0-0.4,0.1-0.7,0.4-1c0.2-0.3,0.6-0.4,0.9-0.4c0.4,0,0.7,0.1,0.9,0.4C434,39.9,434.1,40.2,434.1,40.6z M431.7,56.5V44.2h2.1v12.3
	H431.7z"/>
<path class="st0" d="M447.9,50.4c0,0.9-0.1,1.8-0.3,2.7c-0.2,0.7-0.5,1.4-0.9,2.1c-0.4,0.5-0.8,1-1.4,1.3c-0.6,0.3-1.2,0.5-1.9,0.5
	c-0.7,0-1.3-0.2-1.9-0.5c-0.6-0.3-1-0.8-1.4-1.3c-0.4-0.6-0.7-1.3-0.9-2.1c-0.2-0.9-0.3-1.8-0.3-2.7c0-0.9,0.1-1.8,0.3-2.7
	c0.2-0.7,0.5-1.4,0.9-2.1c0.4-0.5,0.8-1,1.4-1.3c0.6-0.3,1.2-0.5,1.9-0.5c0.7,0,1.3,0.2,1.9,0.5c0.6,0.3,1,0.8,1.4,1.3
	c0.4,0.6,0.7,1.3,0.9,2.1C447.9,48.6,448,49.5,447.9,50.4z M445.8,50.4c0-0.6,0-1.3-0.1-1.9c-0.1-0.5-0.2-1-0.4-1.5
	c-0.2-0.4-0.4-0.7-0.7-1c-0.3-0.2-0.6-0.4-1-0.4c-0.4,0-0.7,0.1-1,0.4c-0.3,0.3-0.6,0.6-0.7,1c-0.2,0.5-0.3,1-0.4,1.5
	c-0.1,0.6-0.1,1.2-0.1,1.9c0,0.6,0,1.2,0.1,1.8c0.1,0.5,0.2,1,0.4,1.5c0.2,0.4,0.4,0.7,0.7,1c0.3,0.2,0.6,0.4,1,0.4
	c0.4,0,0.8-0.1,1.1-0.4c0.3-0.3,0.6-0.6,0.7-1c0.2-0.5,0.3-1,0.4-1.5C445.8,51.7,445.8,51,445.8,50.4L445.8,50.4z"/>
<path class="st0" d="M459.4,56.5v-7.8c0-0.3,0-0.7,0-1.1c0-0.3-0.1-0.7-0.2-1c-0.1-0.3-0.3-0.5-0.5-0.7c-0.3-0.2-0.6-0.3-0.9-0.3
	c-0.4,0-0.7,0.1-1,0.3c-0.3,0.2-0.6,0.5-0.8,0.8c-0.2,0.4-0.4,0.8-0.5,1.2c-0.1,0.5-0.2,1-0.2,1.5v7.1h-2v-9.2c0-0.5,0-1,0-1.6
	s0-1.1-0.1-1.5h2c0,0.4,0.1,0.8,0.1,1.2s0,0.7,0,0.9l0,0c0.2-0.7,0.6-1.3,1.1-1.8c0.5-0.5,1.2-0.8,2-0.7c0.6,0,1.1,0.1,1.6,0.4
	c0.4,0.3,0.8,0.6,1,1.1c0.2,0.5,0.4,1,0.5,1.6c0.1,0.6,0.1,1.2,0.1,1.8v7.8L459.4,56.5z"/>
<path class="st0" d="M472.5,56.5c-0.1-0.4-0.1-0.8-0.1-1.1s0-0.7,0-0.9h0c-0.2,0.7-0.5,1.3-1,1.7c-0.5,0.4-1.2,0.7-1.9,0.6
	c-0.4,0-0.7-0.1-1.1-0.2c-0.4-0.1-0.7-0.3-1-0.6c-0.3-0.3-0.6-0.7-0.7-1.1c-0.4-1.3-0.4-2.6,0.2-3.9c0.3-0.5,0.7-1,1.2-1.3
	c0.5-0.3,1-0.5,1.6-0.7c0.6-0.1,1.1-0.2,1.7-0.2h0.8v-0.5c0.1-0.7-0.1-1.5-0.5-2.1c-0.4-0.4-0.9-0.7-1.5-0.7c-0.4,0-0.9,0.1-1.3,0.3
	c-0.4,0.2-0.7,0.5-1,0.9l-1-1.3c0.4-0.6,1-1,1.6-1.3c0.6-0.3,1.3-0.4,1.9-0.5c0.6,0,1.2,0.1,1.8,0.3c0.5,0.2,0.9,0.6,1.1,1
	c0.3,0.5,0.5,1.1,0.6,1.6c0.1,0.7,0.2,1.5,0.2,2.2v5c0,0.4,0,0.9,0,1.4s0.1,0.9,0.1,1.2L472.5,56.5z M472.2,50.5h-0.9
	c-0.4,0-0.7,0-1.1,0.1c-0.3,0.1-0.7,0.2-1,0.4c-0.3,0.2-0.5,0.5-0.7,0.8c-0.2,0.4-0.3,0.8-0.3,1.2c0,0.6,0.1,1.2,0.5,1.7
	c0.3,0.3,0.7,0.5,1.1,0.5c0.4,0,0.8-0.1,1.1-0.4c0.3-0.3,0.5-0.6,0.7-1c0.2-0.4,0.3-0.8,0.4-1.3c0.1-0.4,0.1-0.9,0.1-1.3L472.2,50.5
	z"/>
<path class="st0" d="M479.7,56.5V38h2.1v18.5H479.7z"/>
<path class="st0" d="M489,50.9c0,0.6,0.1,1.1,0.2,1.7c0.1,0.5,0.2,0.9,0.5,1.3c0.2,0.4,0.4,0.7,0.8,0.9c0.3,0.2,0.7,0.3,1.1,0.3
	c0.5,0,1-0.2,1.3-0.5c0.3-0.4,0.6-0.8,0.8-1.2l1.6,0.9c-0.3,0.8-0.8,1.4-1.4,1.9c-0.7,0.5-1.5,0.8-2.3,0.8c-1.3,0-2.6-0.6-3.3-1.7
	c-0.9-1.4-1.3-3.1-1.2-4.8c0-0.9,0.1-1.8,0.3-2.7c0.2-0.7,0.5-1.4,0.9-2.1c0.4-0.5,0.9-1,1.4-1.3c0.6-0.3,1.2-0.5,1.8-0.5
	c0.7,0,1.3,0.1,1.9,0.5c0.5,0.3,1,0.8,1.3,1.3c0.3,0.6,0.6,1.2,0.7,1.9c0.2,0.8,0.2,1.6,0.2,2.4v1L489,50.9z M493.4,49.2
	c0-0.9-0.1-1.8-0.5-2.6c-0.3-0.6-0.9-1-1.6-1c-0.4,0-0.8,0.1-1.1,0.4c-0.3,0.3-0.5,0.6-0.7,0.9c-0.2,0.4-0.3,0.8-0.4,1.2
	c-0.1,0.4-0.1,0.7-0.1,1.1L493.4,49.2z"/>
<path class="st0" d="M505.5,46.6c-0.2-0.3-0.5-0.6-0.8-0.8c-0.4-0.2-0.8-0.3-1.2-0.3c-0.4,0-0.9,0.2-1.2,0.5
	c-0.3,0.4-0.5,0.9-0.5,1.4c0,0.5,0.1,0.9,0.5,1.2c0.4,0.3,0.9,0.6,1.5,0.8c0.3,0.1,0.7,0.3,1,0.5c0.3,0.2,0.6,0.4,0.9,0.7
	c0.3,0.3,0.5,0.6,0.7,1c0.2,0.5,0.3,0.9,0.2,1.4c0,0.6-0.1,1.1-0.3,1.7c-0.2,0.5-0.4,0.9-0.8,1.2c-0.3,0.3-0.7,0.6-1.2,0.8
	c-0.5,0.2-1,0.3-1.5,0.3c-1.4,0-2.7-0.6-3.5-1.7l1.2-1.3c0.3,0.3,0.6,0.6,1,0.9c0.4,0.3,0.9,0.4,1.4,0.4c0.5,0,0.9-0.2,1.2-0.6
	c0.3-0.4,0.5-0.9,0.5-1.5c0-0.3-0.1-0.6-0.2-0.9c-0.1-0.2-0.3-0.4-0.5-0.6c-0.2-0.2-0.4-0.3-0.7-0.4l-0.9-0.4
	c-0.3-0.1-0.6-0.3-0.9-0.4c-0.3-0.2-0.6-0.4-0.8-0.7c-0.3-0.3-0.5-0.6-0.6-1c-0.2-0.5-0.2-0.9-0.2-1.4c0-0.5,0.1-1,0.3-1.5
	c0.2-0.4,0.4-0.8,0.8-1.1c0.3-0.3,0.7-0.6,1.1-0.7c0.5-0.2,0.9-0.3,1.4-0.3c0.7,0,1.3,0.1,1.9,0.4c0.5,0.2,1,0.6,1.3,1L505.5,46.6z"
	/>
</svg>
